<svg fill="#b32728" height="200px" width="200px" version="1.1" id="Layer_1" xmlns="http://www.w3.org/2000/svg" xmlns:xlink="http://www.w3.org/1999/xlink" viewBox="0 0 502.501 502.501" xml:space="preserve"><g id="SVGRepo_bgCarrier" stroke-width="0"></g><g id="SVGRepo_tracerCarrier" stroke-linecap="round" stroke-linejoin="round" stroke="#ffd312" stroke-width="10.05002"> <g> <g> <path d="M397.917,257.168l-8.533-134.4c-1.067-10.667-10.667-19.2-21.333-19.2h-89.6l17.067-54.4l57.6-7.467 c11.733-2.133,19.2-11.733,18.133-23.467c-2.133-11.733-11.733-19.2-23.467-18.133l-70.4,8.533 c-7.467,1.067-14.933,7.467-17.067,14.933l-25.6,80H134.451c-11.733,0-20.267,8.533-21.333,19.2l-8.533,134.4 c-2.133,40.533,11.733,80,39.467,109.867c22.4,24.533,53.333,39.467,85.333,43.733v49.067h-35.2 c-11.733,0-21.333,9.6-21.333,21.333s9.6,21.333,21.333,21.333h113.067c11.733,0,22.4-9.6,22.4-21.333s-9.6-21.333-21.333-21.333 h-36.267v-49.067c31.999-4.266,62.933-19.199,85.333-43.733C386.184,337.168,400.051,297.701,397.917,257.168z M327.518,339.301 c-20.267,21.333-46.933,33.067-76.8,33.067s-56.533-11.733-76.8-33.067c-19.2-21.333-29.867-50.133-27.733-78.933l7.467-115.2 h194.133l7.467,115.2C357.385,290.234,347.784,317.968,327.518,339.301z"></path> </g> </g> </g><g id="SVGRepo_iconCarrier"> <g> <g> <path d="M397.917,257.168l-8.533-134.4c-1.067-10.667-10.667-19.2-21.333-19.2h-89.6l17.067-54.4l57.6-7.467 c11.733-2.133,19.2-11.733,18.133-23.467c-2.133-11.733-11.733-19.2-23.467-18.133l-70.4,8.533 c-7.467,1.067-14.933,7.467-17.067,14.933l-25.6,80H134.451c-11.733,0-20.267,8.533-21.333,19.2l-8.533,134.4 c-2.133,40.533,11.733,80,39.467,109.867c22.4,24.533,53.333,39.467,85.333,43.733v49.067h-35.2 c-11.733,0-21.333,9.6-21.333,21.333s9.6,21.333,21.333,21.333h113.067c11.733,0,22.4-9.6,22.4-21.333s-9.6-21.333-21.333-21.333 h-36.267v-49.067c31.999-4.266,62.933-19.199,85.333-43.733C386.184,337.168,400.051,297.701,397.917,257.168z M327.518,339.301 c-20.267,21.333-46.933,33.067-76.8,33.067s-56.533-11.733-76.8-33.067c-19.2-21.333-29.867-50.133-27.733-78.933l7.467-115.2 h194.133l7.467,115.2C357.385,290.234,347.784,317.968,327.518,339.301z"></path> </g> </g> </g></svg>