<svg version="1.1" id="Uploaded to svgrepo.com" xmlns="http://www.w3.org/2000/svg" xmlns:xlink="http://www.w3.org/1999/xlink" viewBox="0 0 32 32" xml:space="preserve" fill="#ffd312" stroke="#ffd312"><g id="SVGRepo_bgCarrier" stroke-width="0"></g><g id="SVGRepo_tracerCarrier" stroke-linecap="round" stroke-linejoin="round"></g><g id="SVGRepo_iconCarrier"> <style type="text/css"> .stone_een{fill:#b32728;} </style> <path class="stone_een" d="M2.854,5.854C2.539,5.539,2.762,5,3.207,5h20.086l2.756-2.756C26.029,2.164,26,2.086,26,2 c0-0.629,0.581-1.122,1.235-0.973c0.361,0.082,0.655,0.376,0.738,0.737C28.123,2.419,27.629,3,27,3 c-0.086,0-0.164-0.029-0.244-0.049L24.707,5h4.086c0.445,0,0.669,0.539,0.354,0.854L28,7h-6.768 c-0.409-0.288-0.837-0.438-1.279-0.438c-0.496,0-0.919,0.184-1.296,0.438H4L2.854,5.854z M18.148,10.914 c0.373,0.373,0.708,0.523,1.023,0.523c0.51,0,0.969-0.394,1.452-0.877c0.781-0.781,1.33-1.499,0.354-2.475 c-0.373-0.373-0.708-0.523-1.023-0.523c-0.51,0-0.969,0.394-1.452,0.877C17.721,9.22,17.172,9.938,18.148,10.914z M21.5,29h-5V18.5 L27,8h-4.82c0.915,1.5-0.338,2.757-0.849,3.268c-0.566,0.566-1.246,1.17-2.159,1.17c-0.48,0-0.943-0.178-1.384-0.518l-3.084,3.084 c-0.098,0.098-0.226,0.146-0.354,0.146s-0.256-0.049-0.354-0.146c-0.195-0.195-0.195-0.512,0-0.707l3.091-3.091 C16.081,9.836,16.935,8.645,17.535,8H5l10.5,10.5V29h-5c-0.276,0-0.5,0.224-0.5,0.5v0c0,0.276,0.224,0.5,0.5,0.5h11 c0.276,0,0.5-0.224,0.5-0.5v0C22,29.224,21.776,29,21.5,29z"></path> </g></svg>