<svg fill="#b32728" height="200px" width="200px" version="1.1" id="Capa_1" xmlns="http://www.w3.org/2000/svg" xmlns:xlink="http://www.w3.org/1999/xlink" viewBox="0 0 297 297" xml:space="preserve"><g id="SVGRepo_bgCarrier" stroke-width="0"></g><g id="SVGRepo_tracerCarrier" stroke-linecap="round" stroke-linejoin="round" stroke="#ffd312" stroke-width="5.94"> <path d="M126.013,263.268v13.289h-23.51c-5.645,0-10.221,4.576-10.221,10.221c0,5.646,4.576,10.223,10.221,10.223h67.463 c5.645,0,10.223-4.577,10.223-10.223c0-5.645-4.578-10.221-10.223-10.221h-23.51v-13.289c36.637,0,67.463-29.805,67.463-66.441 v-38.121c4.58,2.157,9.689,3.368,15.078,3.368c19.586,0,35.52-15.934,35.52-35.52s-15.934-35.521-35.52-35.521 c-0.457,0-0.91,0.017-1.363,0.035c7.463-5.286,12.352-14.031,12.352-23.911c0-15.942-12.719-28.942-28.451-29.197 c-8.844-11.73-22.615-18.834-37.422-18.979C165.179,7.135,151.186,0,136.235,0c-14.953,0-28.945,7.135-37.879,18.981 c-14.805,0.146-28.578,7.248-37.418,18.979c-15.736,0.255-28.455,13.255-28.455,29.197c0,15.123,11.453,27.59,26.066,29.044v100.625 C58.55,233.463,89.376,263.268,126.013,263.268z M78.993,110.937c6.125,2.84,12.861,4.397,19.828,4.397 c5.332,0,10.539-0.882,15.529-2.627c7.031,1.745,14.375,2.627,21.885,2.627c7.506,0,14.852-0.882,21.887-2.627 c4.986,1.745,10.193,2.627,15.525,2.627c6.967,0,13.705-1.558,19.828-4.396v23.537H78.993V110.937z M52.927,67.158 c0-4.83,3.805-8.759,8.484-8.759c0.652,0,1.338,0.097,2.092,0.292c4.541,1.181,9.299-0.877,11.549-4.995 c4.805-8.805,13.912-14.273,23.77-14.273c1.121,0,2.273,0.079,3.521,0.24c4.148,0.544,8.211-1.505,10.248-5.163 c4.828-8.671,13.887-14.057,23.645-14.057c9.756,0,18.814,5.386,23.643,14.057c2.037,3.657,6.092,5.704,10.248,5.163 c1.248-0.161,2.4-0.24,3.521-0.24c9.857,0,18.967,5.469,23.771,14.273c2.246,4.117,7.008,6.181,11.553,4.994 c0.75-0.196,1.434-0.291,2.088-0.291c4.678,0,8.484,3.929,8.484,8.759c0,4.825-3.807,8.751-8.484,8.751 c-0.666,0-1.367-0.095-2.088-0.282c-4.545-1.189-9.305,0.874-11.553,4.994c-4.803,8.802-13.912,14.27-23.771,14.27 c-3.742,0-7.375-0.766-10.797-2.279c-1.313-0.58-2.721-0.873-4.133-0.873c-0.967,0-1.934,0.138-2.875,0.413 c-6.207,1.817-12.803,2.739-19.607,2.739c-6.807,0-13.402-0.921-19.605-2.739c-2.316-0.679-4.797-0.517-7.004,0.459 c-3.428,1.513-7.063,2.28-10.805,2.28c-9.857,0-18.967-5.468-23.771-14.271c-2.248-4.118-7.012-6.183-11.547-4.994 c-0.734,0.19-1.418,0.283-2.092,0.283C56.731,75.909,52.927,71.983,52.927,67.158z M147.477,242.824h-22.486 c-25.363,0-45.998-20.634-45.998-45.997v-41.909h114.482v41.909C193.476,222.19,172.843,242.824,147.477,242.824z M228.997,141.631 c-8.313,0-15.076-6.764-15.076-15.076c0-8.313,6.764-15.077,15.076-15.077s15.076,6.764,15.076,15.077 C244.073,134.867,237.31,141.631,228.997,141.631z"></path> </g><g id="SVGRepo_iconCarrier"> <path d="M126.013,263.268v13.289h-23.51c-5.645,0-10.221,4.576-10.221,10.221c0,5.646,4.576,10.223,10.221,10.223h67.463 c5.645,0,10.223-4.577,10.223-10.223c0-5.645-4.578-10.221-10.223-10.221h-23.51v-13.289c36.637,0,67.463-29.805,67.463-66.441 v-38.121c4.58,2.157,9.689,3.368,15.078,3.368c19.586,0,35.52-15.934,35.52-35.52s-15.934-35.521-35.52-35.521 c-0.457,0-0.91,0.017-1.363,0.035c7.463-5.286,12.352-14.031,12.352-23.911c0-15.942-12.719-28.942-28.451-29.197 c-8.844-11.73-22.615-18.834-37.422-18.979C165.179,7.135,151.186,0,136.235,0c-14.953,0-28.945,7.135-37.879,18.981 c-14.805,0.146-28.578,7.248-37.418,18.979c-15.736,0.255-28.455,13.255-28.455,29.197c0,15.123,11.453,27.59,26.066,29.044v100.625 C58.55,233.463,89.376,263.268,126.013,263.268z M78.993,110.937c6.125,2.84,12.861,4.397,19.828,4.397 c5.332,0,10.539-0.882,15.529-2.627c7.031,1.745,14.375,2.627,21.885,2.627c7.506,0,14.852-0.882,21.887-2.627 c4.986,1.745,10.193,2.627,15.525,2.627c6.967,0,13.705-1.558,19.828-4.396v23.537H78.993V110.937z M52.927,67.158 c0-4.83,3.805-8.759,8.484-8.759c0.652,0,1.338,0.097,2.092,0.292c4.541,1.181,9.299-0.877,11.549-4.995 c4.805-8.805,13.912-14.273,23.77-14.273c1.121,0,2.273,0.079,3.521,0.24c4.148,0.544,8.211-1.505,10.248-5.163 c4.828-8.671,13.887-14.057,23.645-14.057c9.756,0,18.814,5.386,23.643,14.057c2.037,3.657,6.092,5.704,10.248,5.163 c1.248-0.161,2.4-0.24,3.521-0.24c9.857,0,18.967,5.469,23.771,14.273c2.246,4.117,7.008,6.181,11.553,4.994 c0.75-0.196,1.434-0.291,2.088-0.291c4.678,0,8.484,3.929,8.484,8.759c0,4.825-3.807,8.751-8.484,8.751 c-0.666,0-1.367-0.095-2.088-0.282c-4.545-1.189-9.305,0.874-11.553,4.994c-4.803,8.802-13.912,14.27-23.771,14.27 c-3.742,0-7.375-0.766-10.797-2.279c-1.313-0.58-2.721-0.873-4.133-0.873c-0.967,0-1.934,0.138-2.875,0.413 c-6.207,1.817-12.803,2.739-19.607,2.739c-6.807,0-13.402-0.921-19.605-2.739c-2.316-0.679-4.797-0.517-7.004,0.459 c-3.428,1.513-7.063,2.28-10.805,2.28c-9.857,0-18.967-5.468-23.771-14.271c-2.248-4.118-7.012-6.183-11.547-4.994 c-0.734,0.19-1.418,0.283-2.092,0.283C56.731,75.909,52.927,71.983,52.927,67.158z M147.477,242.824h-22.486 c-25.363,0-45.998-20.634-45.998-45.997v-41.909h114.482v41.909C193.476,222.19,172.843,242.824,147.477,242.824z M228.997,141.631 c-8.313,0-15.076-6.764-15.076-15.076c0-8.313,6.764-15.077,15.076-15.077s15.076,6.764,15.076,15.077 C244.073,134.867,237.31,141.631,228.997,141.631z"></path> </g></svg>